<?xml version="1.0" encoding="UTF-8" standalone="no"?>
<!-- Creator: CorelDRAW 2020 (64-Bit) -->

<svg
   xml:space="preserve"
   width="64"
   height="64"
   version="1.1"
   shape-rendering="geometricPrecision"
   text-rendering="geometricPrecision"
   image-rendering="optimizeQuality"
   fill-rule="evenodd"
   clip-rule="evenodd"
   viewBox="0 0 63.877 63.877"
   id="svg1494"
   sodipodi:docname="LeftArrow.svg"
   inkscape:version="1.2.2 (b0a8486541, 2022-12-01)"
   xmlns:inkscape="http://www.inkscape.org/namespaces/inkscape"
   xmlns:sodipodi="http://sodipodi.sourceforge.net/DTD/sodipodi-0.dtd"
   xmlns="http://www.w3.org/2000/svg"
   xmlns:svg="http://www.w3.org/2000/svg"><defs
   id="defs1498" /><sodipodi:namedview
   id="namedview1496"
   pagecolor="#ffffff"
   bordercolor="#666666"
   borderopacity="1.0"
   inkscape:showpageshadow="2"
   inkscape:pageopacity="0.0"
   inkscape:pagecheckerboard="0"
   inkscape:deskcolor="#d1d1d1"
   showgrid="false"
   inkscape:zoom="13.546875"
   inkscape:cx="32"
   inkscape:cy="32"
   inkscape:window-width="1920"
   inkscape:window-height="1115"
   inkscape:window-x="0"
   inkscape:window-y="0"
   inkscape:window-maximized="1"
   inkscape:current-layer="Livello_x0020_1" />
 <g
   id="Livello_x0020_1"
   inkscape:label="Livello 1"
   inkscape:groupmode="layer">
  <metadata
   id="CorelCorpID_0Corel-Layer" />
  <rect
   fill="none"
   width="63.876999"
   height="63.876999"
   id="rect1480"
   x="0"
   y="0" />
  <g
   id="_2049549012976"
   transform="matrix(-1,0,0,1,63.877,0)">
   <path
   fill="#6699ff"
   d="m 28.043,18.995 v -5.154 c 0,-1.496 0.783,-2.779 2.113,-3.463 1.33,-0.685 2.829,-0.576 4.046,0.293 l 25.337,18.098 c 1.056,0.754 1.631,1.871 1.631,3.169 0,1.298 -0.575,2.415 -1.631,3.17 L 34.202,53.205 c -1.217,0.87 -2.716,0.979 -4.046,0.294 -1.33,-0.685 -2.113,-1.967 -2.113,-3.463 v -9.049 c 0,-2.145 1.75,-3.895 3.895,-3.895 2.146,0 3.895,1.75 3.895,3.895 v 1.48 L 50.574,31.938 35.833,21.409 v 1.481 c 0,2.145 -1.749,3.894 -3.895,3.894 H 6.602 c -2.145,0 -3.895,-1.749 -3.895,-3.894 0,-2.146 1.75,-3.895 3.895,-3.895 z"
   id="path1482" />
   <path
   fill="#99ffff"
   d="m 28.822,19.774 v -5.933 c 0,-1.197 0.626,-2.223 1.691,-2.771 1.064,-0.547 2.262,-0.46 3.236,0.235 l 25.337,18.098 c 0.845,0.603 1.305,1.497 1.305,2.535 0,1.039 -0.46,1.932 -1.305,2.536 L 33.75,52.571 c -0.975,0.696 -2.173,0.783 -3.237,0.235 -1.065,-0.547 -1.691,-1.573 -1.691,-2.77 v -9.049 c 0,-1.716 1.4,-3.116 3.116,-3.116 1.717,0 3.116,1.4 3.116,3.116 v 2.994 L 51.914,31.938 35.054,19.896 v 2.994 c 0,1.716 -1.399,3.115 -3.116,3.115 H 6.602 c -1.716,0 -3.116,-1.399 -3.116,-3.115 0,-1.717 1.4,-3.116 3.116,-3.116 z"
   id="path1484" />
   <path
   fill="#6699ff"
   d="m 29.601,20.553 v -6.712 c 0,-0.898 0.47,-1.667 1.268,-2.078 0.798,-0.411 1.697,-0.346 2.428,0.176 l 25.336,18.098 c 0.634,0.452 0.979,1.122 0.979,1.901 0,0.779 -0.345,1.449 -0.979,1.902 L 33.297,51.937 c -0.731,0.522 -1.63,0.588 -2.428,0.177 -0.798,-0.411 -1.268,-1.18 -1.268,-2.078 v -9.049 c 0,-1.287 1.05,-2.337 2.337,-2.337 1.287,0 2.337,1.05 2.337,2.337 v 4.508 L 53.254,31.938 34.275,18.382 v 4.508 c 0,1.287 -1.05,2.336 -2.337,2.336 H 6.602 c -1.287,0 -2.337,-1.049 -2.337,-2.336 0,-1.288 1.05,-2.337 2.337,-2.337 z"
   id="path1486" />
   <path
   fill="#99ffff"
   d="m 30.38,21.332 v -7.491 c 0,-0.599 0.313,-1.112 0.845,-1.385 0.533,-0.274 1.132,-0.231 1.619,0.117 L 58.18,30.671 c 0.423,0.301 0.653,0.748 0.653,1.267 0,0.52 -0.23,0.966 -0.653,1.268 L 32.844,51.304 c -0.487,0.347 -1.086,0.391 -1.619,0.117 -0.532,-0.274 -0.845,-0.787 -0.845,-1.385 v -9.049 c 0,-0.858 0.7,-1.558 1.558,-1.558 0.859,0 1.558,0.7 1.558,1.558 v 6.021 L 54.594,31.938 33.496,16.868 v 6.022 c 0,0.858 -0.699,1.558 -1.558,1.558 H 6.602 c -0.858,0 -1.558,-0.7 -1.558,-1.558 0,-0.859 0.7,-1.558 1.558,-1.558 z"
   id="path1488" />
   <path
   fill="#6699ff"
   d="m 31.159,22.111 v -8.27 c 0,-0.299 0.157,-0.556 0.423,-0.693 0.266,-0.137 0.566,-0.115 0.809,0.059 l 25.337,18.097 c 0.211,0.151 0.326,0.375 0.326,0.634 0,0.26 -0.115,0.483 -0.326,0.634 L 32.391,50.67 c -0.243,0.174 -0.543,0.195 -0.809,0.059 -0.266,-0.137 -0.423,-0.394 -0.423,-0.693 v -9.049 c 0,-0.429 0.35,-0.779 0.779,-0.779 0.429,0 0.779,0.35 0.779,0.779 v 7.535 L 55.935,31.938 32.717,15.355 v 7.535 c 0,0.429 -0.35,0.779 -0.779,0.779 H 6.602 c -0.429,0 -0.779,-0.35 -0.779,-0.779 0,-0.43 0.35,-0.779 0.779,-0.779 z"
   id="path1490" />
  </g>
 </g>
</svg>
